<svg xmlns="http://www.w3.org/2000/svg" fill="none" viewBox="0 0 143 34">
  <path fill="#fff" d="M.9 6.8V33h3.7V14H5l7.7 19h3.1l7.7-19h.3v19h3.7V6.8h-4.8l-8.3 20.4H14L5.7 6.8H.9zM42 33.4c4.3 0 7.3-2.1 8.2-5.3l-3.6-.7c-.7 1.9-2.4 2.8-4.6 2.8-3.2 0-5.4-2-5.5-5.9h14V23c0-7.1-4.3-9.9-8.8-9.9-5.4 0-9 4.2-9 10.2 0 6.1 3.5 10.1 9.3 10.1zm-5.5-12c.1-2.7 2.2-5.1 5.3-5.1 3 0 4.9 2.2 4.9 5.2H36.5zM69.4 18.2c-.8-3.1-3.2-5-7.4-5-4.5 0-7.6 2.2-7.6 5.7 0 2.8 1.7 4.7 5.4 5.5l3.3.7c1.9.4 2.7 1.3 2.7 2.5 0 1.5-1.6 2.7-4 2.7s-3.8-1-4.3-2.9l-3.7.6c.6 3.4 3.5 5.4 8 5.4 4.7 0 8-2.5 8-6 0-2.9-1.8-4.6-5.4-5.4l-3.1-.7c-2.2-.5-3.1-1.3-3.1-2.6 0-1.5 1.6-2.6 3.8-2.6 2.4 0 3.5 1.4 4 2.7l3.4-.6zM83.1 13.4h-4V8.7h-3.8v4.7h-2.9v3h2.9V28c0 3.6 2.7 5.3 5.7 5.3 1.2 0 2-.3 2.5-.5l-.7-3.1-1.3.2c-1.3 0-2.4-.5-2.4-2.7V16.4h4v-3zM95.4 33.4c5.6 0 9.2-4 9.2-10.1S101 13 95.4 13c-5.5 0-9.1 4-9.1 10.2 0 6 3.6 10.1 9.1 10.1zm0-3.2c-3.6 0-5.3-3.2-5.3-7 0-3.7 1.7-6.9 5.3-6.9 3.6 0 5.3 3.2 5.3 7 0 3.7-1.7 6.9-5.3 6.9zM108 9h1.1V5.6h2.1l1.9 3.4h1.2l-2-3.6C113.5 5 114 4 114 2.9c0-1.5-1-2.6-3-2.6h-3V9zm1.1-4.4V1.2h1.9c1.4 0 2 .7 2 1.7 0 1.1-.6 1.7-2 1.7H109zM119.7 6.3c0 1.3-1 1.8-1.7 1.8-.8 0-1.4-.6-1.4-1.6v-4h-1v4.1c0 1.7.9 2.5 2.1 2.5a2 2 0 002-1.2V9h1V2.5h-1v3.8zM127.2 4c-.3-1-1-1.6-2.3-1.6-1.4 0-2.4.8-2.4 1.9 0 .9.5 1.5 1.7 1.8l1.1.2c.7.2 1 .5 1 1s-.6 1-1.5 1-1.4-.4-1.6-1.1l-1 .2c.3 1.1 1.2 1.7 2.6 1.7 1.5 0 2.5-.8 2.5-2 0-.8-.5-1.4-1.7-1.7l-1-.2c-.8-.2-1.1-.5-1.1-1 0-.6.6-1 1.4-1 .9 0 1.2.5 1.4 1l1-.3zM133.5 4c-.3-1-1-1.6-2.3-1.6-1.4 0-2.4.8-2.4 1.9 0 .9.5 1.5 1.7 1.8l1 .2c.7.2 1 .5 1 1s-.5 1-1.5 1c-.8 0-1.3-.4-1.5-1.1l-1 .2c.3 1.1 1.2 1.7 2.5 1.7 1.6 0 2.6-.8 2.6-2 0-.8-.6-1.4-1.7-1.7l-1-.2c-.8-.2-1.1-.5-1.1-1 0-.6.6-1 1.4-1 .8 0 1.2.5 1.4 1l.9-.3zM135.1 9h1V2.5h-1V9zm.5-7.6c.4 0 .7-.3.7-.7 0-.4-.3-.7-.7-.7-.4 0-.7.3-.7.7 0 .4.3.7.7.7zM139.9 9.2c1.1 0 1.7-.7 2-1V9h1V4.7c0-2-1.6-2.3-2.4-2.3-1 0-2.2.3-2.7 1.5l1 .3c.2-.4.7-1 1.7-1s1.4.5 1.4 1.4c0 .5-.5.5-1.7.6-1.2.2-2.6.4-2.6 2 0 1.2 1 2 2.3 2zm.1-1c-.8 0-1.3-.3-1.3-1 0-.8.7-1 1.4-1.1.5 0 1.6-.2 1.8-.4v1c0 .7-.7 1.5-1.9 1.5z"/>
</svg>
